/* XPM */
static char * geneweb_xpm[] = {
"28 32 16 1",
" 	c None",
".	c #000000",
"+	c #0000FF",
"@	c #FFFFFF",  
"#	c #4c4c4c",  
"$	c #0000ff",  
"%	c #FFFFFF",  
"&	c #00FF00",  
"*	c #7F0000",  
"=	c #ff0000",  
"-	c #7F0000",  
";	c #FF00FF",  
">	c #Ffff00",  
",	c #7F7F7F",    
"'	c #999999",    
")	c #Ffffff",    
"                            ",
"             ##             ",
"           .&&&. &&.        ",
"       #&..&&&&&&&&&        ",
"      &&&&&&&&&&&&&&&       ",
"      &&&&&$)==&&&&&.       ",
"     #=;==&$)==&&&&&&&&     ",
"     #''''&&*&&>>>>&&&&.    ",
"    .&=;==&&*&&====&&&&.    ",
"   &&&&&..&&#**&&&&====     ",
"   &&&&,**&&.*;.;;,====     ",
"  #))*****.&#*====*&&&&#    ",
"  #))=&'>'*.&,#.;)&&&&&&    ",
"   .&&&$>$&*&.&&*&&&&&&&    ",
"    &&&&&&&#..&*&&&&&&.     ",
"   &&&===**&*#*&&....       ",
"   &&&)))&*******----       ",
"   &&&&&&&&.***&&&&&&       ",
"   @&&)&&&&&**,&&&&&        ",
"      .&&&&&**  .&#         ",
"      #&&&  **              ",
"       '.   ***             ",
"           .***.            ",
"          .******           ",
"         **********         ",
"                            ",
"                            ",
"                            ",
"                            ",
"                            ",
"                            ",
"                            "};
